<svg xmlns="http://www.w3.org/2000/svg" width="1100" height="620" viewBox="0 0 1100 620" role="img" aria-label="Algorithm throughput by string length">
<rect width="1100" height="620" fill="#0f172a" />
<text x="550" y="36" text-anchor="middle" font-family="Arial, Helvetica, sans-serif" font-size="24" font-weight="700" fill="#e5e7eb">Levenshtein benchmark throughput by string length</text>
<text x="550" y="60" text-anchor="middle" font-family="Arial, Helvetica, sans-serif" font-size="13" fill="#cbd5e1">Y axis = mean ops/sec (log10), X axis = string length (log2)</text>
<line x1="100" y1="510.60474226040867" x2="920" y2="510.60474226040867" stroke="#334155" stroke-width="1" opacity="0.6" />
<text x="88" y="514.6047422604087" text-anchor="end" font-family="Arial, Helvetica, sans-serif" font-size="12" fill="#94a3b8">1.0k</text>
<line x1="100" y1="428.5173796777832" x2="920" y2="428.5173796777832" stroke="#334155" stroke-width="1" opacity="0.6" />
<text x="88" y="432.5173796777832" text-anchor="end" font-family="Arial, Helvetica, sans-serif" font-size="12" fill="#94a3b8">10k</text>
<line x1="100" y1="346.4300170951577" x2="920" y2="346.4300170951577" stroke="#334155" stroke-width="1" opacity="0.6" />
<text x="88" y="350.4300170951577" text-anchor="end" font-family="Arial, Helvetica, sans-serif" font-size="12" fill="#94a3b8">100k</text>
<line x1="100" y1="264.34265451253225" x2="920" y2="264.34265451253225" stroke="#334155" stroke-width="1" opacity="0.6" />
<text x="88" y="268.34265451253225" text-anchor="end" font-family="Arial, Helvetica, sans-serif" font-size="12" fill="#94a3b8">1.0M</text>
<line x1="100" y1="182.25529192990678" x2="920" y2="182.25529192990678" stroke="#334155" stroke-width="1" opacity="0.6" />
<text x="88" y="186.25529192990678" text-anchor="end" font-family="Arial, Helvetica, sans-serif" font-size="12" fill="#94a3b8">10M</text>
<line x1="100" y1="100.16792934728136" x2="920" y2="100.16792934728136" stroke="#334155" stroke-width="1" opacity="0.6" />
<text x="88" y="104.16792934728136" text-anchor="end" font-family="Arial, Helvetica, sans-serif" font-size="12" fill="#94a3b8">100M</text>
<line x1="100" y1="80" x2="100" y2="540" stroke="#334155" stroke-width="1" opacity="0.45" />
<text x="100" y="564" text-anchor="middle" font-family="Arial, Helvetica, sans-serif" font-size="12" fill="#94a3b8">1</text>
<line x1="182" y1="80" x2="182" y2="540" stroke="#334155" stroke-width="1" opacity="0.45" />
<text x="182" y="564" text-anchor="middle" font-family="Arial, Helvetica, sans-serif" font-size="12" fill="#94a3b8">2</text>
<line x1="264" y1="80" x2="264" y2="540" stroke="#334155" stroke-width="1" opacity="0.45" />
<text x="264" y="564" text-anchor="middle" font-family="Arial, Helvetica, sans-serif" font-size="12" fill="#94a3b8">4</text>
<line x1="346" y1="80" x2="346" y2="540" stroke="#334155" stroke-width="1" opacity="0.45" />
<text x="346" y="564" text-anchor="middle" font-family="Arial, Helvetica, sans-serif" font-size="12" fill="#94a3b8">8</text>
<line x1="428" y1="80" x2="428" y2="540" stroke="#334155" stroke-width="1" opacity="0.45" />
<text x="428" y="564" text-anchor="middle" font-family="Arial, Helvetica, sans-serif" font-size="12" fill="#94a3b8">16</text>
<line x1="510" y1="80" x2="510" y2="540" stroke="#334155" stroke-width="1" opacity="0.45" />
<text x="510" y="564" text-anchor="middle" font-family="Arial, Helvetica, sans-serif" font-size="12" fill="#94a3b8">32</text>
<line x1="592" y1="80" x2="592" y2="540" stroke="#334155" stroke-width="1" opacity="0.45" />
<text x="592" y="564" text-anchor="middle" font-family="Arial, Helvetica, sans-serif" font-size="12" fill="#94a3b8">64</text>
<line x1="674" y1="80" x2="674" y2="540" stroke="#334155" stroke-width="1" opacity="0.45" />
<text x="674" y="564" text-anchor="middle" font-family="Arial, Helvetica, sans-serif" font-size="12" fill="#94a3b8">128</text>
<line x1="756" y1="80" x2="756" y2="540" stroke="#334155" stroke-width="1" opacity="0.45" />
<text x="756" y="564" text-anchor="middle" font-family="Arial, Helvetica, sans-serif" font-size="12" fill="#94a3b8">256</text>
<line x1="838" y1="80" x2="838" y2="540" stroke="#334155" stroke-width="1" opacity="0.45" />
<text x="838" y="564" text-anchor="middle" font-family="Arial, Helvetica, sans-serif" font-size="12" fill="#94a3b8">512</text>
<line x1="920" y1="80" x2="920" y2="540" stroke="#334155" stroke-width="1" opacity="0.45" />
<text x="920" y="564" text-anchor="middle" font-family="Arial, Helvetica, sans-serif" font-size="12" fill="#94a3b8">1024</text>
<line x1="100" y1="80" x2="100" y2="540" stroke="#94a3b8" stroke-width="1.5" />
<line x1="100" y1="540" x2="920" y2="540" stroke="#94a3b8" stroke-width="1.5" />
<path d="M 100.00 80.00 L 182.00 104.10 L 264.00 125.19 L 346.00 140.43 L 428.00 176.06 L 510.00 197.78 L 592.00 243.25 L 674.00 283.97 L 756.00 330.59 L 838.00 381.97 L 920.00 428.40" fill="none" stroke="#38bdf8" stroke-width="3" stroke-linecap="round" stroke-linejoin="round" opacity="0.95" />
<circle cx="100.00" cy="80.00" r="4.5" fill="#38bdf8" stroke="#0f172a" stroke-width="1.5"><title>lightning-levenshtein-v2 | N=1 | mean=176071312.61 ops/sec</title></circle>
<circle cx="182.00" cy="104.10" r="4.5" fill="#38bdf8" stroke="#0f172a" stroke-width="1.5"><title>lightning-levenshtein-v2 | N=2 | mean=89563250.75 ops/sec</title></circle>
<circle cx="264.00" cy="125.19" r="4.5" fill="#38bdf8" stroke="#0f172a" stroke-width="1.5"><title>lightning-levenshtein-v2 | N=4 | mean=49572223.27 ops/sec</title></circle>
<circle cx="346.00" cy="140.43" r="4.5" fill="#38bdf8" stroke="#0f172a" stroke-width="1.5"><title>lightning-levenshtein-v2 | N=8 | mean=32326786.58 ops/sec</title></circle>
<circle cx="428.00" cy="176.06" r="4.5" fill="#38bdf8" stroke="#0f172a" stroke-width="1.5"><title>lightning-levenshtein-v2 | N=16 | mean=11899413.88 ops/sec</title></circle>
<circle cx="510.00" cy="197.78" r="4.5" fill="#38bdf8" stroke="#0f172a" stroke-width="1.5"><title>lightning-levenshtein-v2 | N=32 | mean=6470471.84 ops/sec</title></circle>
<circle cx="592.00" cy="243.25" r="4.5" fill="#38bdf8" stroke="#0f172a" stroke-width="1.5"><title>lightning-levenshtein-v2 | N=64 | mean=1807146.96 ops/sec</title></circle>
<circle cx="674.00" cy="283.97" r="4.5" fill="#38bdf8" stroke="#0f172a" stroke-width="1.5"><title>lightning-levenshtein-v2 | N=128 | mean=576701.77 ops/sec</title></circle>
<circle cx="756.00" cy="330.59" r="4.5" fill="#38bdf8" stroke="#0f172a" stroke-width="1.5"><title>lightning-levenshtein-v2 | N=256 | mean=155950.32 ops/sec</title></circle>
<circle cx="838.00" cy="381.97" r="4.5" fill="#38bdf8" stroke="#0f172a" stroke-width="1.5"><title>lightning-levenshtein-v2 | N=512 | mean=36903.44 ops/sec</title></circle>
<circle cx="920.00" cy="428.40" r="4.5" fill="#38bdf8" stroke="#0f172a" stroke-width="1.5"><title>lightning-levenshtein-v2 | N=1024 | mean=10032.67 ops/sec</title></circle>
<path d="M 100.00 103.15 L 182.00 117.32 L 264.00 131.97 L 346.00 148.75 L 428.00 187.64 L 510.00 207.53 L 592.00 257.11 L 674.00 291.37 L 756.00 336.46 L 838.00 383.49 L 920.00 431.77" fill="none" stroke="#22c55e" stroke-width="3" stroke-linecap="round" stroke-linejoin="round" opacity="0.95" />
<circle cx="100.00" cy="103.15" r="4.5" fill="#22c55e" stroke="#0f172a" stroke-width="1.5"><title>lightning-levenshtein-v1 | N=1 | mean=91987527.57 ops/sec</title></circle>
<circle cx="182.00" cy="117.32" r="4.5" fill="#22c55e" stroke="#0f172a" stroke-width="1.5"><title>lightning-levenshtein-v1 | N=2 | mean=61804703.40 ops/sec</title></circle>
<circle cx="264.00" cy="131.97" r="4.5" fill="#22c55e" stroke="#0f172a" stroke-width="1.5"><title>lightning-levenshtein-v1 | N=4 | mean=40975983.54 ops/sec</title></circle>
<circle cx="346.00" cy="148.75" r="4.5" fill="#22c55e" stroke="#0f172a" stroke-width="1.5"><title>lightning-levenshtein-v1 | N=8 | mean=25592688.89 ops/sec</title></circle>
<circle cx="428.00" cy="187.64" r="4.5" fill="#22c55e" stroke="#0f172a" stroke-width="1.5"><title>lightning-levenshtein-v1 | N=16 | mean=8597200.95 ops/sec</title></circle>
<circle cx="510.00" cy="207.53" r="4.5" fill="#22c55e" stroke="#0f172a" stroke-width="1.5"><title>lightning-levenshtein-v1 | N=32 | mean=4921953.73 ops/sec</title></circle>
<circle cx="592.00" cy="257.11" r="4.5" fill="#22c55e" stroke="#0f172a" stroke-width="1.5"><title>lightning-levenshtein-v1 | N=64 | mean=1225025.95 ops/sec</title></circle>
<circle cx="674.00" cy="291.37" r="4.5" fill="#22c55e" stroke="#0f172a" stroke-width="1.5"><title>lightning-levenshtein-v1 | N=128 | mean=468595.07 ops/sec</title></circle>
<circle cx="756.00" cy="336.46" r="4.5" fill="#22c55e" stroke="#0f172a" stroke-width="1.5"><title>lightning-levenshtein-v1 | N=256 | mean=132274.27 ops/sec</title></circle>
<circle cx="838.00" cy="383.49" r="4.5" fill="#22c55e" stroke="#0f172a" stroke-width="1.5"><title>lightning-levenshtein-v1 | N=512 | mean=35365.30 ops/sec</title></circle>
<circle cx="920.00" cy="431.77" r="4.5" fill="#22c55e" stroke="#0f172a" stroke-width="1.5"><title>lightning-levenshtein-v1 | N=1024 | mean=9127.69 ops/sec</title></circle>
<path d="M 100.00 100.27 L 182.00 112.00 L 264.00 129.60 L 346.00 152.12 L 428.00 189.80 L 510.00 212.81 L 592.00 262.15 L 674.00 307.87 L 756.00 356.63 L 838.00 404.94 L 920.00 453.40" fill="none" stroke="#f59e0b" stroke-width="3" stroke-linecap="round" stroke-linejoin="round" opacity="0.95" />
<circle cx="100.00" cy="100.27" r="4.5" fill="#f59e0b" stroke="#0f172a" stroke-width="1.5"><title>fastest-levenshtein | N=1 | mean=99725102.10 ops/sec</title></circle>
<circle cx="182.00" cy="112.00" r="4.5" fill="#f59e0b" stroke="#0f172a" stroke-width="1.5"><title>fastest-levenshtein | N=2 | mean=71764388.12 ops/sec</title></circle>
<circle cx="264.00" cy="129.60" r="4.5" fill="#f59e0b" stroke="#0f172a" stroke-width="1.5"><title>fastest-levenshtein | N=4 | mean=43795186.99 ops/sec</title></circle>
<circle cx="346.00" cy="152.12" r="4.5" fill="#f59e0b" stroke="#0f172a" stroke-width="1.5"><title>fastest-levenshtein | N=8 | mean=23284517.47 ops/sec</title></circle>
<circle cx="428.00" cy="189.80" r="4.5" fill="#f59e0b" stroke="#0f172a" stroke-width="1.5"><title>fastest-levenshtein | N=16 | mean=8091512.05 ops/sec</title></circle>
<circle cx="510.00" cy="212.81" r="4.5" fill="#f59e0b" stroke="#0f172a" stroke-width="1.5"><title>fastest-levenshtein | N=32 | mean=4244548.13 ops/sec</title></circle>
<circle cx="592.00" cy="262.15" r="4.5" fill="#f59e0b" stroke="#0f172a" stroke-width="1.5"><title>fastest-levenshtein | N=64 | mean=1063344.92 ops/sec</title></circle>
<circle cx="674.00" cy="307.87" r="4.5" fill="#f59e0b" stroke="#0f172a" stroke-width="1.5"><title>fastest-levenshtein | N=128 | mean=294974.03 ops/sec</title></circle>
<circle cx="756.00" cy="356.63" r="4.5" fill="#f59e0b" stroke="#0f172a" stroke-width="1.5"><title>fastest-levenshtein | N=256 | mean=75121.90 ops/sec</title></circle>
<circle cx="838.00" cy="404.94" r="4.5" fill="#f59e0b" stroke="#0f172a" stroke-width="1.5"><title>fastest-levenshtein | N=512 | mean=19372.34 ops/sec</title></circle>
<circle cx="920.00" cy="453.40" r="4.5" fill="#f59e0b" stroke="#0f172a" stroke-width="1.5"><title>fastest-levenshtein | N=1024 | mean=4975.27 ops/sec</title></circle>
<path d="M 100.00 94.43 L 182.00 105.19 L 264.00 153.43 L 346.00 178.62 L 428.00 222.01 L 510.00 268.32 L 592.00 315.18 L 674.00 363.59 L 756.00 412.03 L 838.00 461.13 L 920.00 510.59" fill="none" stroke="#f43f5e" stroke-width="3" stroke-linecap="round" stroke-linejoin="round" opacity="0.95" />
<circle cx="100.00" cy="94.43" r="4.5" fill="#f43f5e" stroke="#0f172a" stroke-width="1.5"><title>js-levenshtein | N=1 | mean=117458785.65 ops/sec</title></circle>
<circle cx="182.00" cy="105.19" r="4.5" fill="#f43f5e" stroke="#0f172a" stroke-width="1.5"><title>js-levenshtein | N=2 | mean=86864644.55 ops/sec</title></circle>
<circle cx="264.00" cy="153.43" r="4.5" fill="#f43f5e" stroke="#0f172a" stroke-width="1.5"><title>js-levenshtein | N=4 | mean=22446226.82 ops/sec</title></circle>
<circle cx="346.00" cy="178.62" r="4.5" fill="#f43f5e" stroke="#0f172a" stroke-width="1.5"><title>js-levenshtein | N=8 | mean=11074853.40 ops/sec</title></circle>
<circle cx="428.00" cy="222.01" r="4.5" fill="#f43f5e" stroke="#0f172a" stroke-width="1.5"><title>js-levenshtein | N=16 | mean=3278569.94 ops/sec</title></circle>
<circle cx="510.00" cy="268.32" r="4.5" fill="#f43f5e" stroke="#0f172a" stroke-width="1.5"><title>js-levenshtein | N=32 | mean=894342.03 ops/sec</title></circle>
<circle cx="592.00" cy="315.18" r="4.5" fill="#f43f5e" stroke="#0f172a" stroke-width="1.5"><title>js-levenshtein | N=64 | mean=240235.30 ops/sec</title></circle>
<circle cx="674.00" cy="363.59" r="4.5" fill="#f43f5e" stroke="#0f172a" stroke-width="1.5"><title>js-levenshtein | N=128 | mean=61801.77 ops/sec</title></circle>
<circle cx="756.00" cy="412.03" r="4.5" fill="#f43f5e" stroke="#0f172a" stroke-width="1.5"><title>js-levenshtein | N=256 | mean=15882.06 ops/sec</title></circle>
<circle cx="838.00" cy="461.13" r="4.5" fill="#f43f5e" stroke="#0f172a" stroke-width="1.5"><title>js-levenshtein | N=512 | mean=4006.00 ops/sec</title></circle>
<circle cx="920.00" cy="510.59" r="4.5" fill="#f43f5e" stroke="#0f172a" stroke-width="1.5"><title>js-levenshtein | N=1024 | mean=1000.37 ops/sec</title></circle>
<path d="M 100.00 110.62 L 182.00 131.88 L 264.00 155.06 L 346.00 189.55 L 428.00 243.05 L 510.00 295.42 L 592.00 341.60 L 674.00 389.34 L 756.00 438.16 L 838.00 487.33 L 920.00 536.56" fill="none" stroke="#a78bfa" stroke-width="3" stroke-linecap="round" stroke-linejoin="round" opacity="0.95" />
<circle cx="100.00" cy="110.62" r="4.5" fill="#a78bfa" stroke="#0f172a" stroke-width="1.5"><title>leven | N=1 | mean=74578752.04 ops/sec</title></circle>
<circle cx="182.00" cy="131.88" r="4.5" fill="#a78bfa" stroke="#0f172a" stroke-width="1.5"><title>leven | N=2 | mean=41088667.38 ops/sec</title></circle>
<circle cx="264.00" cy="155.06" r="4.5" fill="#a78bfa" stroke="#0f172a" stroke-width="1.5"><title>leven | N=4 | mean=21443109.74 ops/sec</title></circle>
<circle cx="346.00" cy="189.55" r="4.5" fill="#a78bfa" stroke="#0f172a" stroke-width="1.5"><title>leven | N=8 | mean=8149059.00 ops/sec</title></circle>
<circle cx="428.00" cy="243.05" r="4.5" fill="#a78bfa" stroke="#0f172a" stroke-width="1.5"><title>leven | N=16 | mean=1817241.34 ops/sec</title></circle>
<circle cx="510.00" cy="295.42" r="4.5" fill="#a78bfa" stroke="#0f172a" stroke-width="1.5"><title>leven | N=32 | mean=418280.33 ops/sec</title></circle>
<circle cx="592.00" cy="341.60" r="4.5" fill="#a78bfa" stroke="#0f172a" stroke-width="1.5"><title>leven | N=64 | mean=114512.39 ops/sec</title></circle>
<circle cx="674.00" cy="389.34" r="4.5" fill="#a78bfa" stroke="#0f172a" stroke-width="1.5"><title>leven | N=128 | mean=30010.25 ops/sec</title></circle>
<circle cx="756.00" cy="438.16" r="4.5" fill="#a78bfa" stroke="#0f172a" stroke-width="1.5"><title>leven | N=256 | mean=7630.19 ops/sec</title></circle>
<circle cx="838.00" cy="487.33" r="4.5" fill="#a78bfa" stroke="#0f172a" stroke-width="1.5"><title>leven | N=512 | mean=1921.05 ops/sec</title></circle>
<circle cx="920.00" cy="536.56" r="4.5" fill="#a78bfa" stroke="#0f172a" stroke-width="1.5"><title>leven | N=1024 | mean=482.83 ops/sec</title></circle>
<path d="M 100.00 100.70 L 182.00 121.87 L 264.00 149.80 L 346.00 188.31 L 428.00 243.56 L 510.00 297.32 L 592.00 344.31 L 674.00 392.63 L 756.00 441.29 L 838.00 490.50 L 920.00 540.00" fill="none" stroke="#14b8a6" stroke-width="3" stroke-linecap="round" stroke-linejoin="round" opacity="0.95" />
<circle cx="100.00" cy="100.70" r="4.5" fill="#14b8a6" stroke="#0f172a" stroke-width="1.5"><title>levenshtein-edit-distance | N=1 | mean=98512142.06 ops/sec</title></circle>
<circle cx="182.00" cy="121.87" r="4.5" fill="#14b8a6" stroke="#0f172a" stroke-width="1.5"><title>levenshtein-edit-distance | N=2 | mean=54410311.30 ops/sec</title></circle>
<circle cx="264.00" cy="149.80" r="4.5" fill="#14b8a6" stroke="#0f172a" stroke-width="1.5"><title>levenshtein-edit-distance | N=4 | mean=24854656.42 ops/sec</title></circle>
<circle cx="346.00" cy="188.31" r="4.5" fill="#14b8a6" stroke="#0f172a" stroke-width="1.5"><title>levenshtein-edit-distance | N=8 | mean=8438027.99 ops/sec</title></circle>
<circle cx="428.00" cy="243.56" r="4.5" fill="#14b8a6" stroke="#0f172a" stroke-width="1.5"><title>levenshtein-edit-distance | N=16 | mean=1791156.38 ops/sec</title></circle>
<circle cx="510.00" cy="297.32" r="4.5" fill="#14b8a6" stroke="#0f172a" stroke-width="1.5"><title>levenshtein-edit-distance | N=32 | mean=396508.96 ops/sec</title></circle>
<circle cx="592.00" cy="344.31" r="4.5" fill="#14b8a6" stroke="#0f172a" stroke-width="1.5"><title>levenshtein-edit-distance | N=64 | mean=106131.58 ops/sec</title></circle>
<circle cx="674.00" cy="392.63" r="4.5" fill="#14b8a6" stroke="#0f172a" stroke-width="1.5"><title>levenshtein-edit-distance | N=128 | mean=27366.27 ops/sec</title></circle>
<circle cx="756.00" cy="441.29" r="4.5" fill="#14b8a6" stroke="#0f172a" stroke-width="1.5"><title>levenshtein-edit-distance | N=256 | mean=6988.49 ops/sec</title></circle>
<circle cx="838.00" cy="490.50" r="4.5" fill="#14b8a6" stroke="#0f172a" stroke-width="1.5"><title>levenshtein-edit-distance | N=512 | mean=1757.74 ops/sec</title></circle>
<circle cx="920.00" cy="540.00" r="4.5" fill="#14b8a6" stroke="#0f172a" stroke-width="1.5"><title>levenshtein-edit-distance | N=1024 | mean=438.43 ops/sec</title></circle>
<text x="510" y="596" text-anchor="middle" font-family="Arial, Helvetica, sans-serif" font-size="14" fill="#e5e7eb">String length (log2 scale)</text>
<text x="28" y="310" text-anchor="middle" font-family="Arial, Helvetica, sans-serif" font-size="14" fill="#e5e7eb" transform="rotate(-90 28 310)">Mean ops/sec (log10 scale)</text>
<g>
<text x="930" y="76" font-family="Arial, Helvetica, sans-serif" font-size="13" font-weight="700" fill="#e5e7eb">Algorithms</text>
<line x1="930" y1="90" x2="950" y2="90" stroke="#38bdf8" stroke-width="3" stroke-linecap="round" />
<circle cx="940" cy="90" r="4" fill="#38bdf8" stroke="#0f172a" stroke-width="1.2" />
<text x="960" y="94" font-family="Arial, Helvetica, sans-serif" font-size="12" fill="#e5e7eb">lightning-levenshtein-v2</text>
<line x1="930" y1="116" x2="950" y2="116" stroke="#22c55e" stroke-width="3" stroke-linecap="round" />
<circle cx="940" cy="116" r="4" fill="#22c55e" stroke="#0f172a" stroke-width="1.2" />
<text x="960" y="120" font-family="Arial, Helvetica, sans-serif" font-size="12" fill="#e5e7eb">lightning-levenshtein-v1</text>
<line x1="930" y1="142" x2="950" y2="142" stroke="#f59e0b" stroke-width="3" stroke-linecap="round" />
<circle cx="940" cy="142" r="4" fill="#f59e0b" stroke="#0f172a" stroke-width="1.2" />
<text x="960" y="146" font-family="Arial, Helvetica, sans-serif" font-size="12" fill="#e5e7eb">fastest-levenshtein</text>
<line x1="930" y1="168" x2="950" y2="168" stroke="#f43f5e" stroke-width="3" stroke-linecap="round" />
<circle cx="940" cy="168" r="4" fill="#f43f5e" stroke="#0f172a" stroke-width="1.2" />
<text x="960" y="172" font-family="Arial, Helvetica, sans-serif" font-size="12" fill="#e5e7eb">js-levenshtein</text>
<line x1="930" y1="194" x2="950" y2="194" stroke="#a78bfa" stroke-width="3" stroke-linecap="round" />
<circle cx="940" cy="194" r="4" fill="#a78bfa" stroke="#0f172a" stroke-width="1.2" />
<text x="960" y="198" font-family="Arial, Helvetica, sans-serif" font-size="12" fill="#e5e7eb">leven</text>
<line x1="930" y1="220" x2="950" y2="220" stroke="#14b8a6" stroke-width="3" stroke-linecap="round" />
<circle cx="940" cy="220" r="4" fill="#14b8a6" stroke="#0f172a" stroke-width="1.2" />
<text x="960" y="224" font-family="Arial, Helvetica, sans-serif" font-size="12" fill="#e5e7eb">levenshtein-edit-distance</text>
</g>
</svg>