<svg xmlns="http://www.w3.org/2000/svg" width="1100" height="620" viewBox="0 0 1100 620" role="img" aria-label="Algorithm ranking by string length">
<rect width="1100" height="620" fill="#0f172a" />
<text x="550" y="36" text-anchor="middle" font-family="Arial, Helvetica, sans-serif" font-size="24" font-weight="700" fill="#e5e7eb">Levenshtein benchmark rank by string length</text>
<text x="550" y="60" text-anchor="middle" font-family="Arial, Helvetica, sans-serif" font-size="13" fill="#cbd5e1">Y axis = rank from mean ops/sec at each length (1 = fastest), X axis = string length on log2 scale</text>
<line x1="90" y1="80" x2="920" y2="80" stroke="#334155" stroke-width="1" opacity="0.6" />
<text x="78" y="84" text-anchor="end" font-family="Arial, Helvetica, sans-serif" font-size="12" fill="#94a3b8">1</text>
<line x1="90" y1="195" x2="920" y2="195" stroke="#334155" stroke-width="1" opacity="0.6" />
<text x="78" y="199" text-anchor="end" font-family="Arial, Helvetica, sans-serif" font-size="12" fill="#94a3b8">2</text>
<line x1="90" y1="310" x2="920" y2="310" stroke="#334155" stroke-width="1" opacity="0.6" />
<text x="78" y="314" text-anchor="end" font-family="Arial, Helvetica, sans-serif" font-size="12" fill="#94a3b8">3</text>
<line x1="90" y1="425" x2="920" y2="425" stroke="#334155" stroke-width="1" opacity="0.6" />
<text x="78" y="429" text-anchor="end" font-family="Arial, Helvetica, sans-serif" font-size="12" fill="#94a3b8">4</text>
<line x1="90" y1="540" x2="920" y2="540" stroke="#334155" stroke-width="1" opacity="0.6" />
<text x="78" y="544" text-anchor="end" font-family="Arial, Helvetica, sans-serif" font-size="12" fill="#94a3b8">5</text>
<line x1="90" y1="80" x2="90" y2="540" stroke="#334155" stroke-width="1" opacity="0.45" />
<text x="90" y="564" text-anchor="middle" font-family="Arial, Helvetica, sans-serif" font-size="12" fill="#94a3b8">1</text>
<line x1="173" y1="80" x2="173" y2="540" stroke="#334155" stroke-width="1" opacity="0.45" />
<text x="173" y="564" text-anchor="middle" font-family="Arial, Helvetica, sans-serif" font-size="12" fill="#94a3b8">2</text>
<line x1="256" y1="80" x2="256" y2="540" stroke="#334155" stroke-width="1" opacity="0.45" />
<text x="256" y="564" text-anchor="middle" font-family="Arial, Helvetica, sans-serif" font-size="12" fill="#94a3b8">4</text>
<line x1="339" y1="80" x2="339" y2="540" stroke="#334155" stroke-width="1" opacity="0.45" />
<text x="339" y="564" text-anchor="middle" font-family="Arial, Helvetica, sans-serif" font-size="12" fill="#94a3b8">8</text>
<line x1="422" y1="80" x2="422" y2="540" stroke="#334155" stroke-width="1" opacity="0.45" />
<text x="422" y="564" text-anchor="middle" font-family="Arial, Helvetica, sans-serif" font-size="12" fill="#94a3b8">16</text>
<line x1="505" y1="80" x2="505" y2="540" stroke="#334155" stroke-width="1" opacity="0.45" />
<text x="505" y="564" text-anchor="middle" font-family="Arial, Helvetica, sans-serif" font-size="12" fill="#94a3b8">32</text>
<line x1="588" y1="80" x2="588" y2="540" stroke="#334155" stroke-width="1" opacity="0.45" />
<text x="588" y="564" text-anchor="middle" font-family="Arial, Helvetica, sans-serif" font-size="12" fill="#94a3b8">64</text>
<line x1="671" y1="80" x2="671" y2="540" stroke="#334155" stroke-width="1" opacity="0.45" />
<text x="671" y="564" text-anchor="middle" font-family="Arial, Helvetica, sans-serif" font-size="12" fill="#94a3b8">128</text>
<line x1="754" y1="80" x2="754" y2="540" stroke="#334155" stroke-width="1" opacity="0.45" />
<text x="754" y="564" text-anchor="middle" font-family="Arial, Helvetica, sans-serif" font-size="12" fill="#94a3b8">256</text>
<line x1="837" y1="80" x2="837" y2="540" stroke="#334155" stroke-width="1" opacity="0.45" />
<text x="837" y="564" text-anchor="middle" font-family="Arial, Helvetica, sans-serif" font-size="12" fill="#94a3b8">512</text>
<line x1="920" y1="80" x2="920" y2="540" stroke="#334155" stroke-width="1" opacity="0.45" />
<text x="920" y="564" text-anchor="middle" font-family="Arial, Helvetica, sans-serif" font-size="12" fill="#94a3b8">1024</text>
<line x1="90" y1="80" x2="90" y2="540" stroke="#94a3b8" stroke-width="1.5" />
<line x1="90" y1="540" x2="920" y2="540" stroke="#94a3b8" stroke-width="1.5" />
<path d="M 90.00 80.00 L 173.00 80.00 L 256.00 80.00 L 339.00 80.00 L 422.00 80.00 L 505.00 80.00 L 588.00 80.00 L 671.00 80.00 L 754.00 80.00 L 837.00 80.00 L 920.00 80.00" fill="none" stroke="#38bdf8" stroke-width="3" stroke-linecap="round" stroke-linejoin="round" opacity="0.95" />
<circle cx="90.00" cy="80.00" r="4.5" fill="#38bdf8" stroke="#0f172a" stroke-width="1.5"><title>lightning-levenshtein | N=1 | rank=1 | mean=204547830.09 ops/sec</title></circle>
<circle cx="173.00" cy="80.00" r="4.5" fill="#38bdf8" stroke="#0f172a" stroke-width="1.5"><title>lightning-levenshtein | N=2 | rank=1 | mean=89042436.38 ops/sec</title></circle>
<circle cx="256.00" cy="80.00" r="4.5" fill="#38bdf8" stroke="#0f172a" stroke-width="1.5"><title>lightning-levenshtein | N=4 | rank=1 | mean=47969858.88 ops/sec</title></circle>
<circle cx="339.00" cy="80.00" r="4.5" fill="#38bdf8" stroke="#0f172a" stroke-width="1.5"><title>lightning-levenshtein | N=8 | rank=1 | mean=33099631.44 ops/sec</title></circle>
<circle cx="422.00" cy="80.00" r="4.5" fill="#38bdf8" stroke="#0f172a" stroke-width="1.5"><title>lightning-levenshtein | N=16 | rank=1 | mean=12018654.55 ops/sec</title></circle>
<circle cx="505.00" cy="80.00" r="4.5" fill="#38bdf8" stroke="#0f172a" stroke-width="1.5"><title>lightning-levenshtein | N=32 | rank=1 | mean=6678008.26 ops/sec</title></circle>
<circle cx="588.00" cy="80.00" r="4.5" fill="#38bdf8" stroke="#0f172a" stroke-width="1.5"><title>lightning-levenshtein | N=64 | rank=1 | mean=1794675.67 ops/sec</title></circle>
<circle cx="671.00" cy="80.00" r="4.5" fill="#38bdf8" stroke="#0f172a" stroke-width="1.5"><title>lightning-levenshtein | N=128 | rank=1 | mean=574273.96 ops/sec</title></circle>
<circle cx="754.00" cy="80.00" r="4.5" fill="#38bdf8" stroke="#0f172a" stroke-width="1.5"><title>lightning-levenshtein | N=256 | rank=1 | mean=158071.85 ops/sec</title></circle>
<circle cx="837.00" cy="80.00" r="4.5" fill="#38bdf8" stroke="#0f172a" stroke-width="1.5"><title>lightning-levenshtein | N=512 | rank=1 | mean=35897.44 ops/sec</title></circle>
<circle cx="920.00" cy="80.00" r="4.5" fill="#38bdf8" stroke="#0f172a" stroke-width="1.5"><title>lightning-levenshtein | N=1024 | rank=1 | mean=9356.84 ops/sec</title></circle>
<path d="M 90.00 425.00 L 173.00 310.00 L 256.00 195.00 L 339.00 195.00 L 422.00 195.00 L 505.00 195.00 L 588.00 195.00 L 671.00 195.00 L 754.00 195.00 L 837.00 195.00 L 920.00 195.00" fill="none" stroke="#22c55e" stroke-width="3" stroke-linecap="round" stroke-linejoin="round" opacity="0.95" />
<circle cx="90.00" cy="425.00" r="4.5" fill="#22c55e" stroke="#0f172a" stroke-width="1.5"><title>fastest-levenshtein | N=1 | rank=4 | mean=99691785.90 ops/sec</title></circle>
<circle cx="173.00" cy="310.00" r="4.5" fill="#22c55e" stroke="#0f172a" stroke-width="1.5"><title>fastest-levenshtein | N=2 | rank=3 | mean=74681255.42 ops/sec</title></circle>
<circle cx="256.00" cy="195.00" r="4.5" fill="#22c55e" stroke="#0f172a" stroke-width="1.5"><title>fastest-levenshtein | N=4 | rank=2 | mean=44272872.30 ops/sec</title></circle>
<circle cx="339.00" cy="195.00" r="4.5" fill="#22c55e" stroke="#0f172a" stroke-width="1.5"><title>fastest-levenshtein | N=8 | rank=2 | mean=23291954.75 ops/sec</title></circle>
<circle cx="422.00" cy="195.00" r="4.5" fill="#22c55e" stroke="#0f172a" stroke-width="1.5"><title>fastest-levenshtein | N=16 | rank=2 | mean=8250642.80 ops/sec</title></circle>
<circle cx="505.00" cy="195.00" r="4.5" fill="#22c55e" stroke="#0f172a" stroke-width="1.5"><title>fastest-levenshtein | N=32 | rank=2 | mean=4580353.64 ops/sec</title></circle>
<circle cx="588.00" cy="195.00" r="4.5" fill="#22c55e" stroke="#0f172a" stroke-width="1.5"><title>fastest-levenshtein | N=64 | rank=2 | mean=1087051.21 ops/sec</title></circle>
<circle cx="671.00" cy="195.00" r="4.5" fill="#22c55e" stroke="#0f172a" stroke-width="1.5"><title>fastest-levenshtein | N=128 | rank=2 | mean=299493.98 ops/sec</title></circle>
<circle cx="754.00" cy="195.00" r="4.5" fill="#22c55e" stroke="#0f172a" stroke-width="1.5"><title>fastest-levenshtein | N=256 | rank=2 | mean=78743.22 ops/sec</title></circle>
<circle cx="837.00" cy="195.00" r="4.5" fill="#22c55e" stroke="#0f172a" stroke-width="1.5"><title>fastest-levenshtein | N=512 | rank=2 | mean=19360.17 ops/sec</title></circle>
<circle cx="920.00" cy="195.00" r="4.5" fill="#22c55e" stroke="#0f172a" stroke-width="1.5"><title>fastest-levenshtein | N=1024 | rank=2 | mean=4975.43 ops/sec</title></circle>
<path d="M 90.00 195.00 L 173.00 195.00 L 256.00 425.00 L 339.00 310.00 L 422.00 310.00 L 505.00 310.00 L 588.00 310.00 L 671.00 310.00 L 754.00 310.00 L 837.00 310.00 L 920.00 310.00" fill="none" stroke="#f59e0b" stroke-width="3" stroke-linecap="round" stroke-linejoin="round" opacity="0.95" />
<circle cx="90.00" cy="195.00" r="4.5" fill="#f59e0b" stroke="#0f172a" stroke-width="1.5"><title>js-levenshtein | N=1 | rank=2 | mean=118159506.09 ops/sec</title></circle>
<circle cx="173.00" cy="195.00" r="4.5" fill="#f59e0b" stroke="#0f172a" stroke-width="1.5"><title>js-levenshtein | N=2 | rank=2 | mean=87989151.48 ops/sec</title></circle>
<circle cx="256.00" cy="425.00" r="4.5" fill="#f59e0b" stroke="#0f172a" stroke-width="1.5"><title>js-levenshtein | N=4 | rank=4 | mean=23682411.76 ops/sec</title></circle>
<circle cx="339.00" cy="310.00" r="4.5" fill="#f59e0b" stroke="#0f172a" stroke-width="1.5"><title>js-levenshtein | N=8 | rank=3 | mean=11354238.07 ops/sec</title></circle>
<circle cx="422.00" cy="310.00" r="4.5" fill="#f59e0b" stroke="#0f172a" stroke-width="1.5"><title>js-levenshtein | N=16 | rank=3 | mean=3370357.48 ops/sec</title></circle>
<circle cx="505.00" cy="310.00" r="4.5" fill="#f59e0b" stroke="#0f172a" stroke-width="1.5"><title>js-levenshtein | N=32 | rank=3 | mean=923120.00 ops/sec</title></circle>
<circle cx="588.00" cy="310.00" r="4.5" fill="#f59e0b" stroke="#0f172a" stroke-width="1.5"><title>js-levenshtein | N=64 | rank=3 | mean=242660.50 ops/sec</title></circle>
<circle cx="671.00" cy="310.00" r="4.5" fill="#f59e0b" stroke="#0f172a" stroke-width="1.5"><title>js-levenshtein | N=128 | rank=3 | mean=62099.31 ops/sec</title></circle>
<circle cx="754.00" cy="310.00" r="4.5" fill="#f59e0b" stroke="#0f172a" stroke-width="1.5"><title>js-levenshtein | N=256 | rank=3 | mean=15953.78 ops/sec</title></circle>
<circle cx="837.00" cy="310.00" r="4.5" fill="#f59e0b" stroke="#0f172a" stroke-width="1.5"><title>js-levenshtein | N=512 | rank=3 | mean=4013.73 ops/sec</title></circle>
<circle cx="920.00" cy="310.00" r="4.5" fill="#f59e0b" stroke="#0f172a" stroke-width="1.5"><title>js-levenshtein | N=1024 | rank=3 | mean=1008.29 ops/sec</title></circle>
<path d="M 90.00 540.00 L 173.00 540.00 L 256.00 540.00 L 339.00 540.00 L 422.00 540.00 L 505.00 425.00 L 588.00 425.00 L 671.00 425.00 L 754.00 425.00 L 837.00 425.00 L 920.00 425.00" fill="none" stroke="#f43f5e" stroke-width="3" stroke-linecap="round" stroke-linejoin="round" opacity="0.95" />
<circle cx="90.00" cy="540.00" r="4.5" fill="#f43f5e" stroke="#0f172a" stroke-width="1.5"><title>leven | N=1 | rank=5 | mean=82666105.30 ops/sec</title></circle>
<circle cx="173.00" cy="540.00" r="4.5" fill="#f43f5e" stroke="#0f172a" stroke-width="1.5"><title>leven | N=2 | rank=5 | mean=41235025.90 ops/sec</title></circle>
<circle cx="256.00" cy="540.00" r="4.5" fill="#f43f5e" stroke="#0f172a" stroke-width="1.5"><title>leven | N=4 | rank=5 | mean=21577594.02 ops/sec</title></circle>
<circle cx="339.00" cy="540.00" r="4.5" fill="#f43f5e" stroke="#0f172a" stroke-width="1.5"><title>leven | N=8 | rank=5 | mean=8162950.28 ops/sec</title></circle>
<circle cx="422.00" cy="540.00" r="4.5" fill="#f43f5e" stroke="#0f172a" stroke-width="1.5"><title>leven | N=16 | rank=5 | mean=1786934.07 ops/sec</title></circle>
<circle cx="505.00" cy="425.00" r="4.5" fill="#f43f5e" stroke="#0f172a" stroke-width="1.5"><title>leven | N=32 | rank=4 | mean=416682.70 ops/sec</title></circle>
<circle cx="588.00" cy="425.00" r="4.5" fill="#f43f5e" stroke="#0f172a" stroke-width="1.5"><title>leven | N=64 | rank=4 | mean=113798.42 ops/sec</title></circle>
<circle cx="671.00" cy="425.00" r="4.5" fill="#f43f5e" stroke="#0f172a" stroke-width="1.5"><title>leven | N=128 | rank=4 | mean=29820.90 ops/sec</title></circle>
<circle cx="754.00" cy="425.00" r="4.5" fill="#f43f5e" stroke="#0f172a" stroke-width="1.5"><title>leven | N=256 | rank=4 | mean=7609.67 ops/sec</title></circle>
<circle cx="837.00" cy="425.00" r="4.5" fill="#f43f5e" stroke="#0f172a" stroke-width="1.5"><title>leven | N=512 | rank=4 | mean=1904.57 ops/sec</title></circle>
<circle cx="920.00" cy="425.00" r="4.5" fill="#f43f5e" stroke="#0f172a" stroke-width="1.5"><title>leven | N=1024 | rank=4 | mean=480.79 ops/sec</title></circle>
<path d="M 90.00 310.00 L 173.00 425.00 L 256.00 310.00 L 339.00 425.00 L 422.00 425.00 L 505.00 540.00 L 588.00 540.00 L 671.00 540.00 L 754.00 540.00 L 837.00 540.00 L 920.00 540.00" fill="none" stroke="#a78bfa" stroke-width="3" stroke-linecap="round" stroke-linejoin="round" opacity="0.95" />
<circle cx="90.00" cy="310.00" r="4.5" fill="#a78bfa" stroke="#0f172a" stroke-width="1.5"><title>levenshtein-edit-distance | N=1 | rank=3 | mean=115653600.85 ops/sec</title></circle>
<circle cx="173.00" cy="425.00" r="4.5" fill="#a78bfa" stroke="#0f172a" stroke-width="1.5"><title>levenshtein-edit-distance | N=2 | rank=4 | mean=56201775.55 ops/sec</title></circle>
<circle cx="256.00" cy="310.00" r="4.5" fill="#a78bfa" stroke="#0f172a" stroke-width="1.5"><title>levenshtein-edit-distance | N=4 | rank=3 | mean=24887195.62 ops/sec</title></circle>
<circle cx="339.00" cy="425.00" r="4.5" fill="#a78bfa" stroke="#0f172a" stroke-width="1.5"><title>levenshtein-edit-distance | N=8 | rank=4 | mean=8441079.79 ops/sec</title></circle>
<circle cx="422.00" cy="425.00" r="4.5" fill="#a78bfa" stroke="#0f172a" stroke-width="1.5"><title>levenshtein-edit-distance | N=16 | rank=4 | mean=1795343.42 ops/sec</title></circle>
<circle cx="505.00" cy="540.00" r="4.5" fill="#a78bfa" stroke="#0f172a" stroke-width="1.5"><title>levenshtein-edit-distance | N=32 | rank=5 | mean=397080.25 ops/sec</title></circle>
<circle cx="588.00" cy="540.00" r="4.5" fill="#a78bfa" stroke="#0f172a" stroke-width="1.5"><title>levenshtein-edit-distance | N=64 | rank=5 | mean=106664.20 ops/sec</title></circle>
<circle cx="671.00" cy="540.00" r="4.5" fill="#a78bfa" stroke="#0f172a" stroke-width="1.5"><title>levenshtein-edit-distance | N=128 | rank=5 | mean=27455.65 ops/sec</title></circle>
<circle cx="754.00" cy="540.00" r="4.5" fill="#a78bfa" stroke="#0f172a" stroke-width="1.5"><title>levenshtein-edit-distance | N=256 | rank=5 | mean=6989.70 ops/sec</title></circle>
<circle cx="837.00" cy="540.00" r="4.5" fill="#a78bfa" stroke="#0f172a" stroke-width="1.5"><title>levenshtein-edit-distance | N=512 | rank=5 | mean=1757.05 ops/sec</title></circle>
<circle cx="920.00" cy="540.00" r="4.5" fill="#a78bfa" stroke="#0f172a" stroke-width="1.5"><title>levenshtein-edit-distance | N=1024 | rank=5 | mean=438.27 ops/sec</title></circle>
<text x="505" y="596" text-anchor="middle" font-family="Arial, Helvetica, sans-serif" font-size="14" fill="#e5e7eb">String length (log2 scale)</text>
<text x="28" y="310" text-anchor="middle" font-family="Arial, Helvetica, sans-serif" font-size="14" fill="#e5e7eb" transform="rotate(-90 28 310)">Rank by mean ops/sec (1 = fastest)</text>
<g>
<text x="944" y="76" font-family="Arial, Helvetica, sans-serif" font-size="13" font-weight="700" fill="#e5e7eb">Algorithms</text>
<line x1="944" y1="90" x2="964" y2="90" stroke="#38bdf8" stroke-width="3" stroke-linecap="round" />
<circle cx="954" cy="90" r="4" fill="#38bdf8" stroke="#0f172a" stroke-width="1.2" />
<text x="974" y="94" font-family="Arial, Helvetica, sans-serif" font-size="12" fill="#e5e7eb">lightning-levenshtein</text>
<line x1="944" y1="116" x2="964" y2="116" stroke="#22c55e" stroke-width="3" stroke-linecap="round" />
<circle cx="954" cy="116" r="4" fill="#22c55e" stroke="#0f172a" stroke-width="1.2" />
<text x="974" y="120" font-family="Arial, Helvetica, sans-serif" font-size="12" fill="#e5e7eb">fastest-levenshtein</text>
<line x1="944" y1="142" x2="964" y2="142" stroke="#f59e0b" stroke-width="3" stroke-linecap="round" />
<circle cx="954" cy="142" r="4" fill="#f59e0b" stroke="#0f172a" stroke-width="1.2" />
<text x="974" y="146" font-family="Arial, Helvetica, sans-serif" font-size="12" fill="#e5e7eb">js-levenshtein</text>
<line x1="944" y1="168" x2="964" y2="168" stroke="#f43f5e" stroke-width="3" stroke-linecap="round" />
<circle cx="954" cy="168" r="4" fill="#f43f5e" stroke="#0f172a" stroke-width="1.2" />
<text x="974" y="172" font-family="Arial, Helvetica, sans-serif" font-size="12" fill="#e5e7eb">leven</text>
<line x1="944" y1="194" x2="964" y2="194" stroke="#a78bfa" stroke-width="3" stroke-linecap="round" />
<circle cx="954" cy="194" r="4" fill="#a78bfa" stroke="#0f172a" stroke-width="1.2" />
<text x="974" y="198" font-family="Arial, Helvetica, sans-serif" font-size="12" fill="#e5e7eb">levenshtein-edit-distance</text>
</g>
</svg>