<svg xmlns="http://www.w3.org/2000/svg" width="1100" height="620" viewBox="0 0 1100 620" role="img" aria-label="Algorithm throughput by string length">
<rect width="1100" height="620" fill="#0f172a" />
<text x="550" y="36" text-anchor="middle" font-family="Arial, Helvetica, sans-serif" font-size="24" font-weight="700" fill="#e5e7eb">Levenshtein benchmark throughput by string length</text>
<text x="550" y="60" text-anchor="middle" font-family="Arial, Helvetica, sans-serif" font-size="13" fill="#cbd5e1">Y axis = mean ops/sec (log10), X axis = string length (log2)</text>
<line x1="100" y1="510.856814928157" x2="920" y2="510.856814928157" stroke="#334155" stroke-width="1" opacity="0.6" />
<text x="88" y="514.8568149281571" text-anchor="end" font-family="Arial, Helvetica, sans-serif" font-size="12" fill="#94a3b8">1.0k</text>
<line x1="100" y1="429.7216723375572" x2="920" y2="429.7216723375572" stroke="#334155" stroke-width="1" opacity="0.6" />
<text x="88" y="433.7216723375572" text-anchor="end" font-family="Arial, Helvetica, sans-serif" font-size="12" fill="#94a3b8">10k</text>
<line x1="100" y1="348.5865297469574" x2="920" y2="348.5865297469574" stroke="#334155" stroke-width="1" opacity="0.6" />
<text x="88" y="352.5865297469574" text-anchor="end" font-family="Arial, Helvetica, sans-serif" font-size="12" fill="#94a3b8">100k</text>
<line x1="100" y1="267.4513871563576" x2="920" y2="267.4513871563576" stroke="#334155" stroke-width="1" opacity="0.6" />
<text x="88" y="271.4513871563576" text-anchor="end" font-family="Arial, Helvetica, sans-serif" font-size="12" fill="#94a3b8">1.0M</text>
<line x1="100" y1="186.31624456575787" x2="920" y2="186.31624456575787" stroke="#334155" stroke-width="1" opacity="0.6" />
<text x="88" y="190.31624456575787" text-anchor="end" font-family="Arial, Helvetica, sans-serif" font-size="12" fill="#94a3b8">10M</text>
<line x1="100" y1="105.18110197515807" x2="920" y2="105.18110197515807" stroke="#334155" stroke-width="1" opacity="0.6" />
<text x="88" y="109.18110197515807" text-anchor="end" font-family="Arial, Helvetica, sans-serif" font-size="12" fill="#94a3b8">100M</text>
<line x1="100" y1="80" x2="100" y2="540" stroke="#334155" stroke-width="1" opacity="0.45" />
<text x="100" y="564" text-anchor="middle" font-family="Arial, Helvetica, sans-serif" font-size="12" fill="#94a3b8">1</text>
<line x1="182" y1="80" x2="182" y2="540" stroke="#334155" stroke-width="1" opacity="0.45" />
<text x="182" y="564" text-anchor="middle" font-family="Arial, Helvetica, sans-serif" font-size="12" fill="#94a3b8">2</text>
<line x1="264" y1="80" x2="264" y2="540" stroke="#334155" stroke-width="1" opacity="0.45" />
<text x="264" y="564" text-anchor="middle" font-family="Arial, Helvetica, sans-serif" font-size="12" fill="#94a3b8">4</text>
<line x1="346" y1="80" x2="346" y2="540" stroke="#334155" stroke-width="1" opacity="0.45" />
<text x="346" y="564" text-anchor="middle" font-family="Arial, Helvetica, sans-serif" font-size="12" fill="#94a3b8">8</text>
<line x1="428" y1="80" x2="428" y2="540" stroke="#334155" stroke-width="1" opacity="0.45" />
<text x="428" y="564" text-anchor="middle" font-family="Arial, Helvetica, sans-serif" font-size="12" fill="#94a3b8">16</text>
<line x1="510" y1="80" x2="510" y2="540" stroke="#334155" stroke-width="1" opacity="0.45" />
<text x="510" y="564" text-anchor="middle" font-family="Arial, Helvetica, sans-serif" font-size="12" fill="#94a3b8">32</text>
<line x1="592" y1="80" x2="592" y2="540" stroke="#334155" stroke-width="1" opacity="0.45" />
<text x="592" y="564" text-anchor="middle" font-family="Arial, Helvetica, sans-serif" font-size="12" fill="#94a3b8">64</text>
<line x1="674" y1="80" x2="674" y2="540" stroke="#334155" stroke-width="1" opacity="0.45" />
<text x="674" y="564" text-anchor="middle" font-family="Arial, Helvetica, sans-serif" font-size="12" fill="#94a3b8">128</text>
<line x1="756" y1="80" x2="756" y2="540" stroke="#334155" stroke-width="1" opacity="0.45" />
<text x="756" y="564" text-anchor="middle" font-family="Arial, Helvetica, sans-serif" font-size="12" fill="#94a3b8">256</text>
<line x1="838" y1="80" x2="838" y2="540" stroke="#334155" stroke-width="1" opacity="0.45" />
<text x="838" y="564" text-anchor="middle" font-family="Arial, Helvetica, sans-serif" font-size="12" fill="#94a3b8">512</text>
<line x1="920" y1="80" x2="920" y2="540" stroke="#334155" stroke-width="1" opacity="0.45" />
<text x="920" y="564" text-anchor="middle" font-family="Arial, Helvetica, sans-serif" font-size="12" fill="#94a3b8">1024</text>
<line x1="100" y1="80" x2="100" y2="540" stroke="#94a3b8" stroke-width="1.5" />
<line x1="100" y1="540" x2="920" y2="540" stroke="#94a3b8" stroke-width="1.5" />
<path d="M 100.00 80.00 L 182.00 109.57 L 264.00 131.84 L 346.00 144.51 L 428.00 179.64 L 510.00 200.73 L 592.00 246.86 L 674.00 287.08 L 756.00 332.89 L 838.00 384.77 L 920.00 432.01" fill="none" stroke="#38bdf8" stroke-width="3" stroke-linecap="round" stroke-linejoin="round" opacity="0.95" />
<circle cx="100.00" cy="80.00" r="4.5" fill="#38bdf8" stroke="#0f172a" stroke-width="1.5"><title>lightning-levenshtein | N=1 | mean=204343105.45 ops/sec</title></circle>
<circle cx="182.00" cy="109.57" r="4.5" fill="#38bdf8" stroke="#0f172a" stroke-width="1.5"><title>lightning-levenshtein | N=2 | mean=88282763.65 ops/sec</title></circle>
<circle cx="264.00" cy="131.84" r="4.5" fill="#38bdf8" stroke="#0f172a" stroke-width="1.5"><title>lightning-levenshtein | N=4 | mean=46932963.06 ops/sec</title></circle>
<circle cx="346.00" cy="144.51" r="4.5" fill="#38bdf8" stroke="#0f172a" stroke-width="1.5"><title>lightning-levenshtein | N=8 | mean=32751696.17 ops/sec</title></circle>
<circle cx="428.00" cy="179.64" r="4.5" fill="#38bdf8" stroke="#0f172a" stroke-width="1.5"><title>lightning-levenshtein | N=16 | mean=12084773.84 ops/sec</title></circle>
<circle cx="510.00" cy="200.73" r="4.5" fill="#38bdf8" stroke="#0f172a" stroke-width="1.5"><title>lightning-levenshtein | N=32 | mean=6642885.88 ops/sec</title></circle>
<circle cx="592.00" cy="246.86" r="4.5" fill="#38bdf8" stroke="#0f172a" stroke-width="1.5"><title>lightning-levenshtein | N=64 | mean=1793965.73 ops/sec</title></circle>
<circle cx="674.00" cy="287.08" r="4.5" fill="#38bdf8" stroke="#0f172a" stroke-width="1.5"><title>lightning-levenshtein | N=128 | mean=572878.56 ops/sec</title></circle>
<circle cx="756.00" cy="332.89" r="4.5" fill="#38bdf8" stroke="#0f172a" stroke-width="1.5"><title>lightning-levenshtein | N=256 | mean=156137.87 ops/sec</title></circle>
<circle cx="838.00" cy="384.77" r="4.5" fill="#38bdf8" stroke="#0f172a" stroke-width="1.5"><title>lightning-levenshtein | N=512 | mean=35808.10 ops/sec</title></circle>
<circle cx="920.00" cy="432.01" r="4.5" fill="#38bdf8" stroke="#0f172a" stroke-width="1.5"><title>lightning-levenshtein | N=1024 | mean=9372.34 ops/sec</title></circle>
<path d="M 100.00 104.92 L 182.00 116.96 L 264.00 134.51 L 346.00 156.55 L 428.00 192.35 L 510.00 211.56 L 592.00 264.52 L 674.00 309.77 L 756.00 357.12 L 838.00 406.54 L 920.00 454.35" fill="none" stroke="#22c55e" stroke-width="3" stroke-linecap="round" stroke-linejoin="round" opacity="0.95" />
<circle cx="100.00" cy="104.92" r="4.5" fill="#22c55e" stroke="#0f172a" stroke-width="1.5"><title>fastest-levenshtein | N=1 | mean=100732946.77 ops/sec</title></circle>
<circle cx="182.00" cy="116.96" r="4.5" fill="#22c55e" stroke="#0f172a" stroke-width="1.5"><title>fastest-levenshtein | N=2 | mean=71587033.51 ops/sec</title></circle>
<circle cx="264.00" cy="134.51" r="4.5" fill="#22c55e" stroke="#0f172a" stroke-width="1.5"><title>fastest-levenshtein | N=4 | mean=43506210.34 ops/sec</title></circle>
<circle cx="346.00" cy="156.55" r="4.5" fill="#22c55e" stroke="#0f172a" stroke-width="1.5"><title>fastest-levenshtein | N=8 | mean=23276738.26 ops/sec</title></circle>
<circle cx="428.00" cy="192.35" r="4.5" fill="#22c55e" stroke="#0f172a" stroke-width="1.5"><title>fastest-levenshtein | N=16 | mean=8425894.26 ops/sec</title></circle>
<circle cx="510.00" cy="211.56" r="4.5" fill="#22c55e" stroke="#0f172a" stroke-width="1.5"><title>fastest-levenshtein | N=32 | mean=4884992.08 ops/sec</title></circle>
<circle cx="592.00" cy="264.52" r="4.5" fill="#22c55e" stroke="#0f172a" stroke-width="1.5"><title>fastest-levenshtein | N=64 | mean=1086649.44 ops/sec</title></circle>
<circle cx="674.00" cy="309.77" r="4.5" fill="#22c55e" stroke="#0f172a" stroke-width="1.5"><title>fastest-levenshtein | N=128 | mean=300881.19 ops/sec</title></circle>
<circle cx="756.00" cy="357.12" r="4.5" fill="#22c55e" stroke="#0f172a" stroke-width="1.5"><title>fastest-levenshtein | N=256 | mean=78487.66 ops/sec</title></circle>
<circle cx="838.00" cy="406.54" r="4.5" fill="#22c55e" stroke="#0f172a" stroke-width="1.5"><title>fastest-levenshtein | N=512 | mean=19306.06 ops/sec</title></circle>
<circle cx="920.00" cy="454.35" r="4.5" fill="#22c55e" stroke="#0f172a" stroke-width="1.5"><title>fastest-levenshtein | N=1024 | mean=4971.75 ops/sec</title></circle>
<path d="M 100.00 99.24 L 182.00 109.75 L 264.00 155.83 L 346.00 181.91 L 428.00 224.80 L 510.00 270.33 L 592.00 317.31 L 674.00 365.46 L 756.00 413.40 L 838.00 462.05 L 920.00 511.47" fill="none" stroke="#f59e0b" stroke-width="3" stroke-linecap="round" stroke-linejoin="round" opacity="0.95" />
<circle cx="100.00" cy="99.24" r="4.5" fill="#f59e0b" stroke="#0f172a" stroke-width="1.5"><title>js-levenshtein | N=1 | mean=118366954.78 ops/sec</title></circle>
<circle cx="182.00" cy="109.75" r="4.5" fill="#f59e0b" stroke="#0f172a" stroke-width="1.5"><title>js-levenshtein | N=2 | mean=87830545.96 ops/sec</title></circle>
<circle cx="264.00" cy="155.83" r="4.5" fill="#f59e0b" stroke="#0f172a" stroke-width="1.5"><title>js-levenshtein | N=4 | mean=23754916.11 ops/sec</title></circle>
<circle cx="346.00" cy="181.91" r="4.5" fill="#f59e0b" stroke="#0f172a" stroke-width="1.5"><title>js-levenshtein | N=8 | mean=11331898.32 ops/sec</title></circle>
<circle cx="428.00" cy="224.80" r="4.5" fill="#f59e0b" stroke="#0f172a" stroke-width="1.5"><title>js-levenshtein | N=16 | mean=3354869.97 ops/sec</title></circle>
<circle cx="510.00" cy="270.33" r="4.5" fill="#f59e0b" stroke="#0f172a" stroke-width="1.5"><title>js-levenshtein | N=32 | mean=921673.62 ops/sec</title></circle>
<circle cx="592.00" cy="317.31" r="4.5" fill="#f59e0b" stroke="#0f172a" stroke-width="1.5"><title>js-levenshtein | N=64 | mean=242954.55 ops/sec</title></circle>
<circle cx="674.00" cy="365.46" r="4.5" fill="#f59e0b" stroke="#0f172a" stroke-width="1.5"><title>js-levenshtein | N=128 | mean=61942.04 ops/sec</title></circle>
<circle cx="756.00" cy="413.40" r="4.5" fill="#f59e0b" stroke="#0f172a" stroke-width="1.5"><title>js-levenshtein | N=256 | mean=15891.34 ops/sec</title></circle>
<circle cx="838.00" cy="462.05" r="4.5" fill="#f59e0b" stroke="#0f172a" stroke-width="1.5"><title>js-levenshtein | N=512 | mean=3995.22 ops/sec</title></circle>
<circle cx="920.00" cy="511.47" r="4.5" fill="#f59e0b" stroke="#0f172a" stroke-width="1.5"><title>js-levenshtein | N=1024 | mean=982.64 ops/sec</title></circle>
<path d="M 100.00 111.62 L 182.00 135.77 L 264.00 159.28 L 346.00 193.42 L 428.00 246.88 L 510.00 298.09 L 592.00 343.82 L 674.00 391.23 L 756.00 439.38 L 838.00 488.00 L 920.00 536.62" fill="none" stroke="#f43f5e" stroke-width="3" stroke-linecap="round" stroke-linejoin="round" opacity="0.95" />
<circle cx="100.00" cy="111.62" r="4.5" fill="#f43f5e" stroke="#0f172a" stroke-width="1.5"><title>leven | N=1 | mean=83291671.93 ops/sec</title></circle>
<circle cx="182.00" cy="135.77" r="4.5" fill="#f43f5e" stroke="#0f172a" stroke-width="1.5"><title>leven | N=2 | mean=41974259.75 ops/sec</title></circle>
<circle cx="264.00" cy="159.28" r="4.5" fill="#f43f5e" stroke="#0f172a" stroke-width="1.5"><title>leven | N=4 | mean=21540793.92 ops/sec</title></circle>
<circle cx="346.00" cy="193.42" r="4.5" fill="#f43f5e" stroke="#0f172a" stroke-width="1.5"><title>leven | N=8 | mean=8173739.59 ops/sec</title></circle>
<circle cx="428.00" cy="246.88" r="4.5" fill="#f43f5e" stroke="#0f172a" stroke-width="1.5"><title>leven | N=16 | mean=1792855.04 ops/sec</title></circle>
<circle cx="510.00" cy="298.09" r="4.5" fill="#f43f5e" stroke="#0f172a" stroke-width="1.5"><title>leven | N=32 | mean=419096.94 ops/sec</title></circle>
<circle cx="592.00" cy="343.82" r="4.5" fill="#f43f5e" stroke="#0f172a" stroke-width="1.5"><title>leven | N=64 | mean=114487.49 ops/sec</title></circle>
<circle cx="674.00" cy="391.23" r="4.5" fill="#f43f5e" stroke="#0f172a" stroke-width="1.5"><title>leven | N=128 | mean=29815.62 ops/sec</title></circle>
<circle cx="756.00" cy="439.38" r="4.5" fill="#f43f5e" stroke="#0f172a" stroke-width="1.5"><title>leven | N=256 | mean=7602.19 ops/sec</title></circle>
<circle cx="838.00" cy="488.00" r="4.5" fill="#f43f5e" stroke="#0f172a" stroke-width="1.5"><title>leven | N=512 | mean=1912.78 ops/sec</title></circle>
<circle cx="920.00" cy="536.62" r="4.5" fill="#f43f5e" stroke="#0f172a" stroke-width="1.5"><title>leven | N=1024 | mean=481.35 ops/sec</title></circle>
<path d="M 100.00 100.52 L 182.00 127.01 L 264.00 154.38 L 346.00 192.17 L 428.00 246.98 L 510.00 300.03 L 592.00 346.42 L 674.00 394.18 L 756.00 442.41 L 838.00 491.08 L 920.00 540.00" fill="none" stroke="#a78bfa" stroke-width="3" stroke-linecap="round" stroke-linejoin="round" opacity="0.95" />
<circle cx="100.00" cy="100.52" r="4.5" fill="#a78bfa" stroke="#0f172a" stroke-width="1.5"><title>levenshtein-edit-distance | N=1 | mean=114139520.02 ops/sec</title></circle>
<circle cx="182.00" cy="127.01" r="4.5" fill="#a78bfa" stroke="#0f172a" stroke-width="1.5"><title>levenshtein-edit-distance | N=2 | mean=53822017.12 ops/sec</title></circle>
<circle cx="264.00" cy="154.38" r="4.5" fill="#a78bfa" stroke="#0f172a" stroke-width="1.5"><title>levenshtein-edit-distance | N=4 | mean=24755019.36 ops/sec</title></circle>
<circle cx="346.00" cy="192.17" r="4.5" fill="#a78bfa" stroke="#0f172a" stroke-width="1.5"><title>levenshtein-edit-distance | N=8 | mean=8469027.75 ops/sec</title></circle>
<circle cx="428.00" cy="246.98" r="4.5" fill="#a78bfa" stroke="#0f172a" stroke-width="1.5"><title>levenshtein-edit-distance | N=16 | mean=1787954.66 ops/sec</title></circle>
<circle cx="510.00" cy="300.03" r="4.5" fill="#a78bfa" stroke="#0f172a" stroke-width="1.5"><title>levenshtein-edit-distance | N=32 | mean=396687.32 ops/sec</title></circle>
<circle cx="592.00" cy="346.42" r="4.5" fill="#a78bfa" stroke="#0f172a" stroke-width="1.5"><title>levenshtein-edit-distance | N=64 | mean=106331.77 ops/sec</title></circle>
<circle cx="674.00" cy="394.18" r="4.5" fill="#a78bfa" stroke="#0f172a" stroke-width="1.5"><title>levenshtein-edit-distance | N=128 | mean=27422.79 ops/sec</title></circle>
<circle cx="756.00" cy="442.41" r="4.5" fill="#a78bfa" stroke="#0f172a" stroke-width="1.5"><title>levenshtein-edit-distance | N=256 | mean=6975.64 ops/sec</title></circle>
<circle cx="838.00" cy="491.08" r="4.5" fill="#a78bfa" stroke="#0f172a" stroke-width="1.5"><title>levenshtein-edit-distance | N=512 | mean=1752.80 ops/sec</title></circle>
<circle cx="920.00" cy="540.00" r="4.5" fill="#a78bfa" stroke="#0f172a" stroke-width="1.5"><title>levenshtein-edit-distance | N=1024 | mean=437.33 ops/sec</title></circle>
<text x="510" y="596" text-anchor="middle" font-family="Arial, Helvetica, sans-serif" font-size="14" fill="#e5e7eb">String length (log2 scale)</text>
<text x="28" y="310" text-anchor="middle" font-family="Arial, Helvetica, sans-serif" font-size="14" fill="#e5e7eb" transform="rotate(-90 28 310)">Mean ops/sec (log10 scale)</text>
<g>
<text x="944" y="76" font-family="Arial, Helvetica, sans-serif" font-size="13" font-weight="700" fill="#e5e7eb">Algorithms</text>
<line x1="944" y1="90" x2="964" y2="90" stroke="#38bdf8" stroke-width="3" stroke-linecap="round" />
<circle cx="954" cy="90" r="4" fill="#38bdf8" stroke="#0f172a" stroke-width="1.2" />
<text x="974" y="94" font-family="Arial, Helvetica, sans-serif" font-size="12" fill="#e5e7eb">lightning-levenshtein</text>
<line x1="944" y1="116" x2="964" y2="116" stroke="#22c55e" stroke-width="3" stroke-linecap="round" />
<circle cx="954" cy="116" r="4" fill="#22c55e" stroke="#0f172a" stroke-width="1.2" />
<text x="974" y="120" font-family="Arial, Helvetica, sans-serif" font-size="12" fill="#e5e7eb">fastest-levenshtein</text>
<line x1="944" y1="142" x2="964" y2="142" stroke="#f59e0b" stroke-width="3" stroke-linecap="round" />
<circle cx="954" cy="142" r="4" fill="#f59e0b" stroke="#0f172a" stroke-width="1.2" />
<text x="974" y="146" font-family="Arial, Helvetica, sans-serif" font-size="12" fill="#e5e7eb">js-levenshtein</text>
<line x1="944" y1="168" x2="964" y2="168" stroke="#f43f5e" stroke-width="3" stroke-linecap="round" />
<circle cx="954" cy="168" r="4" fill="#f43f5e" stroke="#0f172a" stroke-width="1.2" />
<text x="974" y="172" font-family="Arial, Helvetica, sans-serif" font-size="12" fill="#e5e7eb">leven</text>
<line x1="944" y1="194" x2="964" y2="194" stroke="#a78bfa" stroke-width="3" stroke-linecap="round" />
<circle cx="954" cy="194" r="4" fill="#a78bfa" stroke="#0f172a" stroke-width="1.2" />
<text x="974" y="198" font-family="Arial, Helvetica, sans-serif" font-size="12" fill="#e5e7eb">levenshtein-edit-distance</text>
</g>
</svg>